<svg viewBox="0 0 1200 800" xmlns="http://www.w3.org/2000/svg">
  <!-- Estilos -->
  <defs>
    <style>
      .block-main { fill: #2563eb; stroke: #1d4ed8; stroke-width: 2; }
      .block-input { fill: #16a34a; stroke: #15803d; stroke-width: 2; }
      .block-output { fill: #dc2626; stroke: #b91c1c; stroke-width: 2; }
      .block-process { fill: #ea580c; stroke: #c2410c; stroke-width: 2; }
      .block-storage { fill: #7c3aed; stroke: #6d28d9; stroke-width: 2; }
      .text-white { fill: white; font-family: Arial, sans-serif; font-size: 12px; font-weight: bold; text-anchor: middle; }
      .text-small { font-size: 10px; }
      .arrow { stroke: #374151; stroke-width: 2; fill: none; marker-end: url(#arrowhead); }
      .connection { stroke: #6b7280; stroke-width: 1.5; fill: none; }
    </style>
    <marker id="arrowhead" markerWidth="10" markerHeight="7" refX="9" refY="3.5" orient="auto">
      <polygon points="0 0, 10 3.5, 0 7" fill="#374151"/>
    </marker>
  </defs>

  <!-- Título -->
  <text x="600" y="30" class="text-white" style="fill: #1f2937; font-size: 18px;">Sistema de Riego Hidropónico Automático</text>

  <!-- Bloque Central - Microcontrolador -->
  <rect x="500" y="300" width="200" height="80" rx="5" class="block-main"/>
  <text x="600" y="325" class="text-white">MICROCONTROLADOR</text>
  <text x="600" y="340" class="text-white text-small">AT89C51</text>
  <text x="600" y="355" class="text-white text-small">Control Principal</text>
  <text x="600" y="370" class="text-white text-small">Gestión de Recetas</text>

  <!-- Entradas - Sensores y Configuración -->
  <rect x="50" y="120" width="150" height="60" rx="5" class="block-input"/>
  <text x="125" y="140" class="text-white">CONFIGURACIÓN</text>
  <text x="125" y="155" class="text-white text-small">Selección de Receta</text>
  <text x="125" y="170" class="text-white text-small">(1, 2 o 3)</text>

  <rect x="50" y="200" width="150" height="60" rx="5" class="block-input"/>
  <text x="125" y="220" class="text-white">TEMPORIZADOR</text>
  <text x="125" y="235" class="text-white text-small">Frecuencia</text>
  <text x="125" y="250" class="text-white text-small">de Riego</text>

  <rect x="50" y="280" width="150" height="60" rx="5" class="block-input"/>
  <text x="125" y="300" class="text-white">SENSORES</text>
  <text x="125" y="315" class="text-white text-small">Nivel de tanques</text>
  <text x="125" y="330" class="text-white text-small">Estado del sistema</text>

  <!-- Procesamiento - Mezcla -->
  <rect x="500" y="450" width="200" height="80" rx="5" class="block-process"/>
  <text x="600" y="475" class="text-white">SISTEMA DE MEZCLA</text>
  <text x="600" y="490" class="text-white text-small">Cálculo de proporciones</text>
  <text x="600" y="505" class="text-white text-small">según receta seleccionada</text>
  <text x="600" y="520" class="text-white text-small">Control de tiempos</text>

  <!-- Almacenamiento - Tanques -->
  <rect x="50" y="400" width="120" height="50" rx="5" class="block-storage"/>
  <text x="110" y="420" class="text-white">TANQUE</text>
  <text x="110" y="435" class="text-white text-small">AGUA</text>

  <rect x="50" y="470" width="120" height="50" rx="5" class="block-storage"/>
  <text x="110" y="490" class="text-white">TANQUE</text>
  <text x="110" y="505" class="text-white text-small">NITRÓGENO (N)</text>

  <rect x="50" y="540" width="120" height="50" rx="5" class="block-storage"/>
  <text x="110" y="560" class="text-white">TANQUE</text>
  <text x="110" y="575" class="text-white text-small">FÓSFORO (P)</text>

  <rect x="50" y="610" width="120" height="50" rx="5" class="block-storage"/>
  <text x="110" y="630" class="text-white">TANQUE</text>
  <text x="110" y="645" class="text-white text-small">POTASIO (K)</text>

  <!-- Actuadores - Bombas -->
  <rect x="250" y="400" width="100" height="40" rx="5" class="block-output"/>
  <text x="300" y="420" class="text-white text-small">BOMBA</text>
  <text x="300" y="430" class="text-white text-small">AGUA</text>

  <rect x="250" y="470" width="100" height="40" rx="5" class="block-output"/>
  <text x="300" y="490" class="text-white text-small">BOMBA</text>
  <text x="300" y="500" class="text-white text-small">NITRÓGENO</text>

  <rect x="250" y="540" width="100" height="40" rx="5" class="block-output"/>
  <text x="300" y="560" class="text-white text-small">BOMBA</text>
  <text x="300" y="570" class="text-white text-small">FÓSFORO</text>

  <rect x="250" y="610" width="100" height="40" rx="5" class="block-output"/>
  <text x="300" y="630" class="text-white text-small">BOMBA</text>
  <text x="300" y="640" class="text-white text-small">POTASIO</text>

  <!-- Tanque de Mezcla -->
  <rect x="750" y="450" width="150" height="80" rx="5" class="block-process"/>
  <text x="825" y="475" class="text-white">TANQUE DE</text>
  <text x="825" y="490" class="text-white">MEZCLA</text>
  <text x="825" y="505" class="text-white text-small">Solución nutritiva</text>
  <text x="825" y="520" class="text-white text-small">preparada</text>

  <!-- Sistema de Distribución -->
  <rect x="950" y="450" width="120" height="40" rx="5" class="block-output"/>
  <text x="1010" y="470" class="text-white text-small">BOMBA DE</text>
  <text x="1010" y="480" class="text-white text-small">DISTRIBUCIÓN</text>

  <!-- Cultivo -->
  <rect x="950" y="300" width="120" height="80" rx="5" class="block-input"/>
  <text x="1010" y="325" class="text-white">SISTEMA</text>
  <text x="1010" y="340" class="text-white">HIDROPÓNICO</text>
  <text x="1010" y="355" class="text-white text-small">Cultivo</text>
  <text x="1010" y="370" class="text-white text-small">de plantas</text>

  <!-- Recetas (información) -->
  <rect x="750" y="120" width="200" height="120" rx="5" class="block-main"/>
  <text x="850" y="140" class="text-white">RECETAS PROGRAMADAS</text>
  <text x="850" y="165" class="text-white text-small">Receta 1: N-P-K (tiempo base)</text>
  <text x="850" y="180" class="text-white text-small">Receta 2: N-P-K (tiempo medio)</text>
  <text x="850" y="195" class="text-white text-small">Receta 3: N-P-K (tiempo largo)</text>
  <text x="850" y="220" class="text-white text-small">Variación por tiempo de bomba</text>

  <!-- Conexiones -->
  <!-- Entradas al microcontrolador -->
  <line x1="200" y1="150" x2="500" y2="320" class="arrow"/>
  <line x1="200" y1="230" x2="500" y2="330" class="arrow"/>
  <line x1="200" y1="310" x2="500" y2="350" class="arrow"/>

  <!-- Microcontrolador a sistema de mezcla -->
  <line x1="600" y1="380" x2="600" y2="450" class="arrow"/>

  <!-- Microcontrolador a recetas -->
  <line x1="700" y1="330" x2="750" y2="180" class="arrow"/>

  <!-- Tanques a bombas -->
  <line x1="170" y1="425" x2="250" y2="420" class="connection"/>
  <line x1="170" y1="495" x2="250" y2="490" class="connection"/>
  <line x1="170" y1="565" x2="250" y2="560" class="connection"/>
  <line x1="170" y1="635" x2="250" y2="630" class="connection"/>

  <!-- Bombas al sistema de mezcla -->
  <line x1="350" y1="420" x2="500" y2="470" class="arrow"/>
  <line x1="350" y1="490" x2="500" y2="480" class="arrow"/>
  <line x1="350" y1="560" x2="500" y2="490" class="arrow"/>
  <line x1="350" y1="630" x2="500" y2="500" class="arrow"/>

  <!-- Sistema de mezcla a tanque de mezcla -->
  <line x1="700" y1="490" x2="750" y2="490" class="arrow"/>

  <!-- Tanque de mezcla a bomba de distribución -->
  <line x1="900" y1="490" x2="950" y2="470" class="arrow"/>

  <!-- Bomba de distribución al cultivo -->
  <line x1="1010" y1="450" x2="1010" y2="380" class="arrow"/>

  <!-- Etiquetas de flujo -->
  <text x="430" y="440" style="fill: #6b7280; font-size: 10px; font-family: Arial;">Señales de control</text>
  <text x="430" y="520" style="fill: #6b7280; font-size: 10px; font-family: Arial;">Químicos dosificados</text>
  <text x="825" y="440" style="fill: #6b7280; font-size: 10px; font-family: Arial;">Solución nutritiva</text>
  <text x="1080" y="420" style="fill: #6b7280; font-size: 10px; font-family: Arial;">Riego</text>

</svg>